<svg width="136" height="32" xmlns="http://www.w3.org/2000/svg" class="logo logo-brand" role="presentation" focusable="false" aria-hidden="true">

 <g>
  <title>Layer 1</title>
  <g id="svg_1" fill-rule="evenodd" fill="none">
   <path id="svg_2" fill="#1B3281" d="m107.01639,5.606c0,1.21801 -0.61508,1.82569 -1.84925,1.82569c-1.2435,0 -1.86659,-0.60768 -1.86659,-1.82569c0,-1.25879 0.62308,-1.89015 1.86659,-1.89015c1.23417,0 1.84925,0.63136 1.84925,1.89015"/>
   <path id="svg_3" fill="#3E7BBE" d="m44.59016,20.89187c0,0.43903 -0.27976,0.66004 -0.83293,0.66004l-2.72931,0c-0.488,0 -0.82499,-0.18218 -1.01574,-0.53908l-2.54491,-3.49135l-2.60055,3.51823c-0.26069,0.33898 -0.64219,0.5122 -1.14609,0.5122l-2.41775,0c-0.55317,0 -0.83293,-0.22101 -0.83293,-0.66004c0,-0.15978 0.05722,-0.40021 0.28771,-0.68543l4.37611,-5.52822l-4.29981,-5.11906c-0.18598,-0.21653 -0.36401,-0.36437 -0.36401,-0.65556c0,-0.48533 0.27976,-0.72874 0.83293,-0.72874l2.62758,0c0.46733,0 0.82976,0.16427 1.09045,0.49578l2.57511,3.16133l2.44318,-3.1688c0.24162,-0.32554 0.57066,-0.48831 0.98872,-0.48831l2.4702,0c0.60404,0 0.90924,0.24341 0.90924,0.73471c0,0.25685 -0.13193,0.41066 -0.31314,0.63167l-4.10747,4.97869l4.34272,5.68801c0.22413,0.29119 0.26069,0.52415 0.26069,0.68393m7.8935,-2.59033c0.81657,0 1.00466,0.12271 1.00466,0.64499l0.01988,1.94244c0,0.44595 -0.35935,0.63152 -1.14687,0.63152c-0.50615,0 -1.21415,0.03142 -2.06283,0.03142c-3.33509,0 -4.96517,-1.48751 -4.96517,-4.53885l0,-10.81812c0,-1.15828 0.57649,-1.73592 1.72489,-1.73592l0.55355,0c1.43435,0 1.48023,1.37228 1.48023,1.72246l0.01223,1.87061l3.10266,0c0.55202,0 0.82421,0.26936 0.82421,0.80511l0,1.56233c0,0.53724 -0.27219,0.80811 -0.82421,0.80811l-3.10266,0l0,5.82134c0,0.57315 0.11774,0.93381 0.35171,1.08046c0.16667,0.11523 0.57496,0.1721 1.22485,0.1721l1.80287,0z"/>
   <path id="svg_4" fill="#1B3281" d="m127.96502,18.30656c0.60613,-0.03066 1.12974,0.20438 1.12974,0.74163l0.0045,1.47011c0,0.76499 -0.52811,1.03361 -1.13424,1.03361c-0.79967,0 -1.8844,-0.00438 -3.79881,-0.00438c-2.339,0 -4.02536,-0.52702 -5.1161,-1.65698c-1.08623,-1.1285 -1.62934,-2.8395 -1.62934,-5.13008c0,-2.27453 0.52661,-3.94319 1.58433,-5.00016c1.05323,-1.05696 2.74409,-1.58545 5.06809,-1.58545c4.13938,0 5.88576,1.35041 5.95027,4.05706c0.03001,1.24967 0.14403,2.84242 -0.38558,3.59719c-0.36908,0.52264 -0.81168,0.80148 -1.33679,0.99273c-0.35858,0.12701 -1.53033,0.22337 -2.51304,0.22337l-4.29391,0.00292c0.21304,0.55914 0.63463,0.92411 1.27527,1.10076c0.35858,0.09343 0.9512,0.15037 1.80188,0.15037l3.39373,0.0073zm-1.43731,-6.03376c-0.06001,-0.66572 -0.75316,-1.00003 -2.25948,-1.00003c-1.16275,0 -1.95642,0.18978 -2.38251,0.56936c-0.42459,0.38249 -0.65414,1.13142 -0.68565,2.24386l3.34872,-0.00292c0.9272,0 1.62635,0.01606 1.82439,-0.07737c0.32407,-0.16059 0.19204,-1.30661 0.15453,-1.7329z"/>
   <path id="svg_5" fill="#3E7BBE" d="m64.80775,18.30656c0.60691,-0.03066 1.1312,0.20438 1.1312,0.74163l0.003,1.47011c0,0.76499 -0.52729,1.03361 -1.1342,1.03361c-0.80071,0 -1.88985,-0.00438 -3.80523,-0.00438c-2.34202,0 -4.03056,-0.52702 -5.1197,-1.65698c-1.09214,-1.1285 -1.63145,-2.8395 -1.63145,-5.13008c0,-2.27453 0.52579,-3.94319 1.58188,-5.00016c1.05759,-1.05696 2.74913,-1.58545 5.07613,-1.58545c4.14624,0 5.95797,1.35041 5.95797,4.05706c0,1.23945 0.14421,2.84242 -0.38608,3.59719c-0.36806,0.52264 -0.81122,0.80148 -1.33401,0.99273c-0.36355,0.12701 -1.53681,0.22337 -2.52079,0.22337l-4.29797,0.00292c0.21182,0.55914 0.63696,0.92411 1.27692,1.10076c0.35904,0.09343 0.95093,0.15037 1.80271,0.15037l3.39962,0.0073zm-1.44067,-6.03376c-0.05859,-0.66572 -0.75413,-1.00003 -2.2609,-1.00003c-1.16275,0 -1.95895,0.18978 -2.38559,0.56936c-0.42664,0.38249 -0.65499,1.13142 -0.68804,2.24386l3.35605,-0.00292c0.9269,0 1.62845,0.01606 1.82375,-0.07737c0.32599,-0.16059 0.19079,-1.30661 0.15473,-1.7329zm17.63838,8.51013c0,0.51462 -0.26532,0.76898 -0.79293,0.76898l-2.15441,0c-0.52913,0 -0.79446,-0.25583 -0.79446,-0.76898l0,-7.39281c0,-0.81897 -0.18951,-1.35711 -0.57309,-1.61295c-0.31384,-0.21026 -0.90816,-0.31465 -1.78903,-0.31465c-1.31145,0 -2.24235,0.05881 -2.78967,0.16909l0,9.15132c0,0.51315 -0.26532,0.76898 -0.79294,0.76898l-2.1529,0c-0.52761,0 -0.79445,-0.25436 -0.79445,-0.76898l0,-10.65694c0,-0.83368 0.44726,-1.34094 1.34329,-1.51738c1.48732,-0.28671 3.26574,-0.43375 5.33373,-0.43375c3.96922,0 5.95686,1.59972 5.95686,4.78739l0,7.82068zm14.86339,-1.29182c0,0.86132 -0.46549,1.38145 -1.39028,1.5619c-1.70268,0.33361 -3.28936,0.4989 -4.75543,0.4989c-2.58107,0 -4.43066,-0.56259 -5.55341,-1.68928c-1.11965,-1.12063 -1.67793,-2.95095 -1.67793,-5.48032c0,-4.57806 2.35065,-6.86936 7.05968,-6.86936c1.06089,0 1.89753,0.02123 2.49911,0.06672l0,-1.5892c0,-0.51103 -0.00618,-2.27462 1.57432,-2.27462l0.5258,0c0.77943,0 1.71814,0.60808 1.71814,2.27613l0,13.49913zm-3.81826,-8.35241c-0.38352,-0.14861 -1.14903,-0.22443 -2.30116,-0.22443c-1.3377,0 -2.23621,0.23959 -2.69706,0.72029c-0.4593,0.48222 -0.68973,1.38601 -0.68973,2.71438c0,1.65896 0.23816,2.71287 0.71138,3.16173c0.40054,0.38062 1.34544,0.57017 2.83315,0.57017c0.83974,0 1.55576,-0.04094 2.14342,-0.12435l0,-6.81779z"/>
   <path id="svg_6" fill="#1B3281" d="m101.07104,20.77623c0,0.51712 -0.2637,0.77568 -0.78657,0.77568l-2.09148,0c-0.55903,0 -0.8378,-0.25856 -0.8378,-0.77568l0,-14.76547c0,-1.16429 0.5741,-2.29491 1.72683,-2.29491l0.45205,0c1.34711,0 1.53697,1.74719 1.53697,2.30256l0,14.75782zm5.94535,-0.0021c0,0.5205 -0.26219,0.77778 -0.78656,0.77778l-2.14121,0c-0.52438,0 -0.78807,-0.25728 -0.78807,-0.77778l0,-10.87416c0,-1.15255 0.56506,-1.72511 1.6982,-1.72511l0.41739,0c0.52287,0 1.60025,0.22754 1.60025,1.81137l0,10.7879zm10.40438,-15.11097c0,1.33132 -0.28763,1.45054 -0.85517,1.45054l-2.03641,0c-0.68752,0 -1.09819,0.03516 -1.23354,0.09935c-0.25224,0.1177 -0.37529,0.46925 -0.37529,1.05467l0,0.97518l3.17151,0c0.56909,0 0.85671,0.2843 0.85671,0.85291l0,1.55448c0,0.51816 -0.28762,0.77801 -0.85671,0.77801l-3.27764,0c0.03538,0.03057 0.07229,0.04891 0.10613,0.04891l0,8.22639c0,0.56401 -0.25993,0.84831 -0.78134,0.84831l-2.03949,0c-0.57062,0 -0.85363,-0.2843 -0.85363,-0.85137l0,-12.31054c0,-3.11661 1.64113,-4.67415 4.92953,-4.67415c1.23969,0 1.93336,0.01528 2.08716,0.04891c0.77058,0.16508 1.15817,1.16013 1.15817,1.8984m14.65677,2.9468l-0.53655,0l0,-0.4351l1.48634,0l0,0.4351l-0.53654,0l0,1.79441l-0.41325,0l0,-1.79441zm0.94979,-0.4351l0.87535,0l0.607,1.45479l0.00479,0l0.61019,-1.45479l0.87535,0l0,2.22951l-0.57824,0l0,-1.71032l-0.01118,0l-0.68846,1.71032l-0.44407,0l-0.6661,-1.71032l-0.00638,0l0,1.71032l-0.57825,0l0,-2.22951z"/>
   <path id="svg_7" fill="#3E7BBE" d="m13.30008,16.80024s0.33223,0.11034 0.54841,0.74172c0.60564,1.75774 1.54826,9.34806 -13.84849,13.67115c0,0 0.64855,-17.05638 12.03,-15.50705c0,0 -5.11847,4.23574 -7.15155,9.06455c0,0 5.06125,-7.28689 8.42163,-7.97037"/>
   <path id="svg_8" fill="#3E7BBE" d="m24.84866,24.77061c-2.03613,-4.82881 -7.15108,-9.06455 -7.15108,-9.06455c11.38069,-1.54933 12.0292,15.50705 12.0292,15.50705c-15.39731,-4.32462 -14.45316,-11.91341 -13.84916,-13.66962c0.21776,-0.63444 0.54996,-0.74325 0.54996,-0.74325c3.36017,0.68195 8.42108,7.97037 8.42108,7.97037m-19.97032,-18.32811c2.03303,4.82881 7.15139,9.06455 7.15139,9.06455c-11.38119,1.54933 -12.02973,-15.50705 -12.02973,-15.50705c15.39799,4.32463 14.45221,11.91341 13.84977,13.67116c-0.21936,0.63291 -0.54999,0.74171 -0.54999,0.74171c-3.36031,-0.68195 -8.42144,-7.97037 -8.42144,-7.97037"/>
   <path id="svg_9" fill="#3E7BBE" d="m16.42891,14.41287s-0.33058,-0.11034 -0.5515,-0.74325c-0.60394,-1.75774 -1.54641,-9.34652 13.84937,-13.66962c0,0 -0.64845,17.05638 -12.028,15.50705c0,0 5.11603,-4.2388 7.15036,-9.06455c0,0 -5.06199,7.28689 -8.42023,7.97037"/>
  </g>
 </g>
</svg>