<?xml version="1.0" encoding="utf-8"?>
<svg viewBox="0 0 136 32" xmlns="http://www.w3.org/2000/svg">
  <g fill="none" fill-rule="evenodd">
    <path d="M13.3000849 16.800243s.332224.1103378.548408.7417151C14.454126 19.2997001 15.3967518 26.8900195 0 31.2131148c0 0 .648552-17.0563809 12.0300039-15.5070547 0 0-5.11847417 4.2357446-7.15155755 9.0645546 0 0 5.06124901-7.2868905 8.42163855-7.9703717" fill="#3E7BBE"/>
    <path d="M24.8486568 24.7706147c-2.036126-4.82881-7.151078-9.0645546-7.151078-9.0645546C29.0782674 14.1567339 29.726776 31.2131148 29.726776 31.2131148 14.3294672 26.888487 15.2736193 19.2997001 15.8776223 17.5434905c.217759-.6344422.5499607-.7432475.5499607-.7432475 3.3601642.6819488 8.4210738 7.9703717 8.4210738 7.9703717M4.87833594 6.44250002C6.9113733 11.2713101 12.0297316 15.5070546 12.0297316 15.5070546.64853733 17.0563809 0 0 0 0c15.3979929 4.32462775 14.4522093 11.9134146 13.849769 13.6711567-.2193582.6329097-.5499851.741715-.5499851.741715-3.36031352-.6819487-8.42144796-7.97037168-8.42144796-7.97037168" fill="#3E7BBE"/>
    <path d="M16.428907 14.4128717s-.3305793-.1103378-.5514952-.7432475C15.2734689 11.9118822 14.3310001 4.32309528 29.726776 0c0 0-.648444 17.0563809-12.0279996 15.5070546 0 0 5.116032-4.2388094 7.150366-9.06455458 0 0-5.0619951 7.28689048-8.4202354 7.97037168" fill="#3E7BBE"/>
  </g>
</svg>